<svg id="Layer_2" data-name="Layer 2" xmlns="http://www.w3.org/2000/svg" viewBox="0 0 118 139.85"><defs><style>.cls-1{fill:#adafb2;}.cls-2{fill:#231f20;}</style></defs><title>logo</title><path class="cls-1" d="M334,451.13s-27.93,33.46-80.87,0l13.09-20.94Z" transform="translate(-247 -326.15)"/><path class="cls-1" d="M258.35,349.05s27.92-33.45,80.87,0L326.13,370Z" transform="translate(-247 -326.15)"/><path class="cls-1" d="M247,373.49c2.33,7.71,1.89,25.31,23.56,30.55L345,427.16s.49-24.14-27.87-34S247,373.49,247,373.49Z" transform="translate(-247 -326.15)"/><path class="cls-2" d="M354,443.09s-27.93,33.46-80.87,0l13.09-20.94Z" transform="translate(-247 -326.15)"/><path class="cls-2" d="M278.36,341s27.93-33.46,80.88,0L346.15,362Z" transform="translate(-247 -326.15)"/><path class="cls-2" d="M267,365.45c2.33,7.71,1.89,25.31,23.56,30.55L365,419.13s.49-24.15-27.87-34S267,365.45,267,365.45Z" transform="translate(-247 -326.15)"/></svg>